<svg id="Layer_1" data-name="Layer 1" xmlns="http://www.w3.org/2000/svg" viewBox="0 0 455.39 38.6"><defs><style>.cls-1{fill:#f2e9e4;}</style></defs><path class="cls-1" d="M48.67,72.53H32L29.67,77.7h-8.4L35.43,44.09h9.8L59.38,77.7H51Zm-3.33-7.39-5-12.79-5,12.79Z" transform="translate(-21.27 -44.09)"/><path class="cls-1" d="M100.27,51.87V69.92a7.78,7.78,0,0,1-7.79,7.78H64.8V44.09H92.48A7.78,7.78,0,0,1,100.27,51.87Zm-7.94,1.81A1.66,1.66,0,0,0,90.67,52H72.75V69.76H90.67a1.66,1.66,0,0,0,1.66-1.65Z" transform="translate(-21.27 -44.09)"/><path class="cls-1" d="M133.1,72.53H116.42L114.1,77.7h-8.4l14.16-33.61h9.8L143.82,77.7h-8.4Zm-3.32-7.39-5-12.79-5,12.79Z" transform="translate(-21.27 -44.09)"/><path class="cls-1" d="M181.35,44.09h8.36V77.7h-8.4V61.47l-8,16.21-7.6,0-8-16.21V77.7h-8.4V44.09h8.35l11.88,24.23Z" transform="translate(-21.27 -44.09)"/><path class="cls-1" d="M197,82.69v-7h36.4v7Z" transform="translate(-21.27 -44.09)"/><path class="cls-1" d="M274.69,51.09V61.36a7,7,0,0,1-7,7H249.08V77.7h-8.41V44.09h27A7,7,0,0,1,274.69,51.09Zm-7.94,1.64a.7.7,0,0,0-.7-.7h-17v8.4h17a.7.7,0,0,0,.7-.7Z" transform="translate(-21.27 -44.09)"/><path class="cls-1" d="M307.14,44.09h8.4V77.7h-8.4V64.86H290.4V77.7H282V44.09h8.4V56.93h16.74Z" transform="translate(-21.27 -44.09)"/><path class="cls-1" d="M348.33,72.53H331.65l-2.32,5.17h-8.4l14.16-33.61h9.8L359.05,77.7h-8.4ZM345,65.14l-5-12.79-5,12.79Z" transform="translate(-21.27 -44.09)"/><path class="cls-1" d="M399.93,62.7v7.9a7,7,0,0,1-7,7l-21.46.06a7,7,0,0,1-7-7l0-3.26,7.94,0V69a.7.7,0,0,0,.7.7l18.2,0A.7.7,0,0,0,392,69V65.33a.7.7,0,0,0-.7-.7H370a5.53,5.53,0,0,1-5.53-5.54v-8a7,7,0,0,1,7-7h21.46a7,7,0,0,1,7,7v3.26H392V52.75a.7.7,0,0,0-.7-.7H373.11a.7.7,0,0,0-.71.7v3.71a.7.7,0,0,0,.7.7h21.3A5.53,5.53,0,0,1,399.93,62.7Z" transform="translate(-21.27 -44.09)"/><path class="cls-1" d="M407.23,44.09H438v7.47H415.72V56.9h18.57v8H415.72v5.34H438V77.7H407.23Z" transform="translate(-21.27 -44.09)"/><path class="cls-1" d="M467.48,44.09h9.18L464,65V77.7h-8.4V65l-12.68-21h9.18l7.7,13Z" transform="translate(-21.27 -44.09)"/></svg>